<svg width="25" height="25" viewBox="0 0 25 25" fill="none" xmlns="http://www.w3.org/2000/svg">
<path d="M15.9258 16.4722L15.7787 17.2077C16.1103 17.274 16.4453 17.1101 16.5966 16.8076L15.9258 16.4722ZM8.92578 9.47223L8.59037 8.80141C8.28786 8.95266 8.12402 9.28767 8.19035 9.61932L8.92578 9.47223ZM9.2798 9.29522L9.61521 9.96604L9.61521 9.96604L9.2798 9.29522ZM10.2423 6.76359L10.9387 6.48504L10.2423 6.76359ZM9.42867 4.72945L8.73231 5.00799L9.42867 4.72945ZM20.6686 15.9693L20.9471 15.273L20.6686 15.9693ZM18.6344 15.1557L18.913 14.4593H18.913L18.6344 15.1557ZM16.1028 16.1182L16.7736 16.4536V16.4536L16.1028 16.1182ZM21.1758 17.8263V19.4722H22.6758V17.8263H21.1758ZM5.92578 4.22223H7.57172V2.72223H5.92578V4.22223ZM15.9258 16.4722C16.0729 15.7368 16.0731 15.7368 16.0733 15.7369C16.0733 15.7369 16.0735 15.7369 16.0736 15.7369C16.0739 15.737 16.074 15.737 16.0742 15.7371C16.0745 15.7371 16.0746 15.7371 16.0746 15.7371C16.0746 15.7371 16.074 15.737 16.0728 15.7368C16.0705 15.7363 16.0658 15.7353 16.0589 15.7338C16.0451 15.7307 16.0225 15.7256 15.9917 15.7181C15.9301 15.7031 15.8362 15.6788 15.7155 15.6433C15.4739 15.5723 15.1274 15.457 14.7212 15.2829C13.9054 14.9332 12.8697 14.3555 11.9561 13.4419L10.8955 14.5026C11.9819 15.589 13.1962 16.2612 14.1303 16.6616C14.5991 16.8625 15.0026 16.9972 15.2923 17.0824C15.4373 17.125 15.5542 17.1554 15.6372 17.1756C15.6787 17.1857 15.7117 17.1932 15.7355 17.1985C15.7474 17.2011 15.7571 17.2032 15.7643 17.2047C15.7679 17.2055 15.7709 17.2061 15.7733 17.2066C15.7745 17.2068 15.7756 17.207 15.7765 17.2072C15.7769 17.2073 15.7773 17.2074 15.7777 17.2075C15.7779 17.2075 15.7781 17.2076 15.7782 17.2076C15.7785 17.2076 15.7787 17.2077 15.9258 16.4722ZM11.9561 13.4419C11.0425 12.5283 10.4648 11.4926 10.1151 10.6768C9.94105 10.2706 9.82574 9.92407 9.75468 9.68248C9.7192 9.56185 9.6949 9.46788 9.67992 9.40629C9.67244 9.37552 9.66729 9.35288 9.66425 9.3391C9.66273 9.33222 9.66173 9.32755 9.66124 9.32519C9.66099 9.32401 9.66087 9.32341 9.66086 9.3234C9.66086 9.32339 9.66089 9.32353 9.66095 9.32382C9.66098 9.32397 9.66102 9.32415 9.66106 9.32437C9.66108 9.32448 9.66112 9.32467 9.66113 9.32473C9.66117 9.32493 9.66122 9.32514 8.92578 9.47223C8.19035 9.61932 8.19039 9.61955 8.19044 9.61979C8.19046 9.61988 8.19051 9.62013 8.19055 9.62032C8.19062 9.62069 8.1907 9.6211 8.19079 9.62155C8.19098 9.62245 8.19119 9.6235 8.19144 9.6247C8.19193 9.62711 8.19256 9.63012 8.19331 9.63373C8.19483 9.64096 8.19689 9.65057 8.19952 9.66248C8.20478 9.6863 8.21233 9.71933 8.22242 9.76082C8.2426 9.84377 8.27299 9.96073 8.31563 10.1057C8.40083 10.3954 8.53551 10.7989 8.73642 11.2677C9.13677 12.2018 9.80903 13.4161 10.8955 14.5026L11.9561 13.4419ZM9.26119 10.143L9.61521 9.96604L8.94439 8.6244L8.59037 8.80141L9.26119 10.143ZM10.9387 6.48504L10.125 4.45091L8.73231 5.00799L9.54597 7.04213L10.9387 6.48504ZM20.9471 15.273L18.913 14.4593L18.3559 15.852L20.39 16.6657L20.9471 15.273ZM15.432 15.7828L15.255 16.1368L16.5966 16.8076L16.7736 16.4536L15.432 15.7828ZM18.913 14.4593C17.585 13.9282 16.0716 14.5036 15.432 15.7828L16.7736 16.4536C17.0643 15.8721 17.7523 15.6106 18.3559 15.852L18.913 14.4593ZM9.61521 9.96604C10.8945 9.32642 11.4699 7.81299 10.9387 6.48504L9.54597 7.04213C9.78741 7.64574 9.52586 8.33366 8.94439 8.6244L9.61521 9.96604ZM7.57172 4.22223C8.08285 4.22223 8.54248 4.53342 8.73231 5.00799L10.125 4.45091C9.7074 3.40684 8.6962 2.72223 7.57172 2.72223V4.22223ZM22.6758 17.8263C22.6758 16.7018 21.9912 15.6906 20.9471 15.273L20.39 16.6657C20.8646 16.8555 21.1758 17.3152 21.1758 17.8263H22.6758ZM19.9258 20.7222C11.5034 20.7222 4.67578 13.8946 4.67578 5.47223H3.17578C3.17578 14.723 10.675 22.2222 19.9258 22.2222V20.7222ZM19.9258 22.2222C21.4446 22.2222 22.6758 20.991 22.6758 19.4722H21.1758C21.1758 20.1626 20.6161 20.7222 19.9258 20.7222V22.2222ZM4.67578 5.47223C4.67578 4.78187 5.23543 4.22223 5.92578 4.22223V2.72223C4.407 2.72223 3.17578 3.95345 3.17578 5.47223H4.67578Z" fill="#28303F"/>
</svg>
