<svg width="27" height="23" viewBox="0 0 27 23" fill="none" xmlns="http://www.w3.org/2000/svg">
<path d="M5.87793 5.61673H9.84971V7.28434H5.87793V5.61673Z" fill="#28303F"/>
<path d="M5.87793 9.40878H9.84971V11.0764H5.87793V9.40878Z" fill="#28303F"/>
<path d="M5.87793 13.2008H9.84971V14.8684H5.87793V13.2008Z" fill="#28303F"/>
<path d="M5.87793 16.9928H9.84971V18.6604H5.87793V16.9928Z" fill="#28303F"/>
<path d="M13.9097 20.881V7.25501L22.6174 7.24484V16.437H24.2841V6.41007C24.2841 5.95518 23.9041 5.57623 23.4498 5.57623L13.0753 5.58835C12.6155 5.5889 12.243 5.96201 12.243 6.42218V20.881H3.48411V4.38118L12.243 2.0249V3.91796H13.9097V0.937289C13.9097 0.397845 13.3813 -0.00815526 12.8599 0.132067L2.43439 2.93668C2.07045 3.03462 1.81745 3.36479 1.81745 3.7419V20.881H0.0507812V22.5486H26.0508V20.881H13.9097Z" fill="#28303F"/>
<path d="M22.6172 17.9379H24.2839V19.4913H22.6172V17.9379Z" fill="#28303F"/>
<path d="M16.252 9.40878H20.2237V11.0764H16.252V9.40878Z" fill="#28303F"/>
<path d="M16.252 13.2008H20.2237V14.8684H16.252V13.2008Z" fill="#28303F"/>
<path d="M16.252 16.9928H20.2237V18.6604H16.252V16.9928Z" fill="#28303F"/>
</svg>
