<svg width="25" height="25" viewBox="0 0 25 25" fill="none" xmlns="http://www.w3.org/2000/svg">
<path d="M6.59181 8.04619C6.24716 7.81642 5.78151 7.90956 5.55174 8.2542C5.32198 8.59885 5.41511 9.0645 5.75976 9.29426L6.59181 8.04619ZM9.95698 11.191L10.373 10.567L9.95698 11.191ZM14.3946 11.191L13.9786 10.567L14.3946 11.191ZM18.5918 9.29426C18.9365 9.0645 19.0296 8.59885 18.7998 8.2542C18.5701 7.90956 18.1044 7.81642 17.7598 8.04619L18.5918 9.29426ZM6.17578 4.42023H18.1758V2.92023H6.17578V4.42023ZM21.4258 7.67023V17.6702H22.9258V7.67023H21.4258ZM18.1758 20.9202H6.17578V22.4202H18.1758V20.9202ZM2.92578 17.6702V7.67023H1.42578V17.6702H2.92578ZM6.17578 20.9202C4.38086 20.9202 2.92578 19.4652 2.92578 17.6702H1.42578C1.42578 20.2936 3.55243 22.4202 6.17578 22.4202V20.9202ZM21.4258 17.6702C21.4258 19.4652 19.9707 20.9202 18.1758 20.9202V22.4202C20.7991 22.4202 22.9258 20.2936 22.9258 17.6702H21.4258ZM18.1758 4.42023C19.9707 4.42023 21.4258 5.8753 21.4258 7.67023H22.9258C22.9258 5.04687 20.7991 2.92023 18.1758 2.92023V4.42023ZM6.17578 2.92023C3.55243 2.92023 1.42578 5.04687 1.42578 7.67023H2.92578C2.92578 5.8753 4.38086 4.42023 6.17578 4.42023V2.92023ZM5.75976 9.29426L9.54096 11.8151L10.373 10.567L6.59181 8.04619L5.75976 9.29426ZM14.8106 11.8151L18.5918 9.29426L17.7598 8.04619L13.9786 10.567L14.8106 11.8151ZM9.54096 11.8151C11.1365 12.8787 13.2151 12.8787 14.8106 11.8151L13.9786 10.567C12.8869 11.2948 11.4647 11.2948 10.373 10.567L9.54096 11.8151Z" fill="#28303F"/>
</svg>
