<svg width="25" height="25" viewBox="0 0 25 25" fill="none" xmlns="http://www.w3.org/2000/svg">
<path d="M18.7346 19.8402L19.2268 20.4061L18.7346 19.8402ZM2.92578 12.2914C2.92578 7.18275 7.06715 3.04138 12.1758 3.04138V1.54138C6.23872 1.54138 1.42578 6.35432 1.42578 12.2914H2.92578ZM12.1758 3.04138C17.2844 3.04138 21.4258 7.18275 21.4258 12.2914H22.9258C22.9258 6.35432 18.1128 1.54138 12.1758 1.54138V3.04138ZM12.1758 16.0414C14.8564 16.0414 17.1447 17.7293 18.0321 20.1029L19.4371 19.5775C18.3377 16.637 15.5024 14.5414 12.1758 14.5414V16.0414ZM21.4258 12.2914C21.4258 15.0786 20.194 17.5773 18.2425 19.2743L19.2268 20.4061C21.4919 18.4364 22.9258 15.5309 22.9258 12.2914H21.4258ZM18.2425 19.2743C16.618 20.6869 14.4976 21.5414 12.1758 21.5414V23.0414C14.8729 23.0414 17.3397 22.0471 19.2268 20.4061L18.2425 19.2743ZM6.31945 20.1029C7.20688 17.7293 9.49515 16.0414 12.1758 16.0414V14.5414C8.84916 14.5414 6.01388 16.637 4.91444 19.5775L6.31945 20.1029ZM12.1758 21.5414C9.85396 21.5414 7.73359 20.6869 6.10909 19.2743L5.1248 20.4061C7.01185 22.0471 9.47864 23.0414 12.1758 23.0414V21.5414ZM6.10909 19.2743C4.15761 17.5772 2.92578 15.0786 2.92578 12.2914H1.42578C1.42578 15.5309 2.85965 18.4364 5.1248 20.4061L6.10909 19.2743Z" fill="#28303F"/>
<circle r="3" transform="matrix(1 0 0 -1 12.1758 9.29138)" stroke="#28303F" stroke-width="1.5" stroke-linejoin="round"/>
</svg>
