<svg width="53" height="53" viewBox="0 0 53 53" fill="none" xmlns="http://www.w3.org/2000/svg">
    <g clip-path="url(#clip0_11_7006)">
        <path d="M46.2657 52.4477H21.674C20.4823 52.4477 19.5073 51.4539 19.5073 50.2393C19.5073 49.0247 20.4823 48.031 21.674 48.031H44.099V4.85807H23.8407V15.8997C23.8407 17.1143 22.8657 18.1081 21.674 18.1081C20.4823 18.1081 19.5073 17.1143 19.5073 15.8997V2.64974C19.5073 1.43516 20.4823 0.441406 21.674 0.441406H46.2657C47.4573 0.441406 48.4323 1.43516 48.4323 2.64974V50.2393C48.324 51.4539 47.349 52.4477 46.2657 52.4477Z"
              fill="currentColor"/>
        <path d="M30.9908 52.448H6.39909C5.20742 52.448 4.23242 51.4543 4.23242 50.2397V21.2001C4.23242 20.2064 4.88242 19.4335 5.74909 19.1022L30.3408 11.4835C30.9908 11.2626 31.6408 11.373 32.1824 11.8147C32.7241 12.2564 33.0491 12.9189 33.0491 13.5814V50.2397C33.1574 51.4543 32.1824 52.448 30.9908 52.448ZM8.56576 48.1418H28.8241V16.5626L8.56576 22.746V48.1418Z"
              fill="currentColor"/>
        <path d="M49.624 52.4479H3.04069C1.84902 52.4479 0.874023 51.4542 0.874023 50.2396C0.874023 49.025 1.84902 48.0312 3.04069 48.0312H49.7324C50.924 48.0312 51.899 49.025 51.899 50.2396C51.899 51.4542 50.8157 52.4479 49.624 52.4479Z"
              fill="currentColor"/>
        <path d="M18.7492 52.4481C17.5575 52.4481 16.5825 51.4544 16.5825 50.2398V39.971C16.5825 38.7564 17.5575 37.7627 18.7492 37.7627C19.9409 37.7627 20.9159 38.7564 20.9159 39.971V50.2398C20.8075 51.4544 19.8325 52.4481 18.7492 52.4481Z"
              fill="currentColor"/>
    </g>
</svg>