<svg width="51" height="51" viewBox="0 0 51 51" fill="none" xmlns="http://www.w3.org/2000/svg">
    <g clip-path="url(#clip0_16_8545)">
        <path d="M46.4111 15.566H43.3905C42.4013 13.2128 40.9276 11.0428 39.0611 9.23356C36.1273 6.38972 32.329 4.53669 28.366 4.01579C21.799 3.15261 15.3626 5.66774 11.1491 10.7437C9.93994 12.2005 8.95596 13.8306 8.22959 15.566H5.2002C2.77705 15.566 0.805664 17.5374 0.805664 19.9605V25.8199C0.805664 28.243 2.77705 30.2144 5.2002 30.2144H11.2012L10.5736 28.2945C8.74492 22.6995 9.77637 16.9845 13.4034 12.6149C16.97 8.31804 22.421 6.18933 27.9842 6.92048C34.9524 7.8364 40.5947 13.3089 41.7049 20.2286C42.4625 24.9504 41.1408 29.7216 38.0786 33.3193C35.0094 36.9252 30.5443 38.9969 25.8282 39.0035C23.3927 39.0068 21.4112 40.9783 21.4112 43.398C21.4112 45.8212 23.3826 47.7925 25.8058 47.7925C28.2289 47.7925 30.2003 45.8212 30.2003 43.398V41.419C34.1025 40.4923 37.6501 38.3428 40.3097 35.2181C41.6015 33.7006 42.6301 32.0236 43.3844 30.2143H46.4111C48.8343 30.2143 50.8057 28.2429 50.8057 25.8198V19.9604C50.8057 17.5374 48.8343 15.566 46.4111 15.566V15.566ZM7.25732 27.2847H5.2002C4.39248 27.2847 3.73535 26.6276 3.73535 25.8199V19.9605C3.73535 19.1528 4.39248 18.4957 5.2002 18.4957H7.27481C7.22266 18.7152 7.17441 18.9359 7.13027 19.1572C6.59561 21.8361 6.63906 24.5621 7.25732 27.2847ZM27.2705 43.398C27.2705 44.2057 26.6134 44.8629 25.8057 44.8629C24.9979 44.8629 24.3408 44.2057 24.3408 43.398C24.3408 42.5914 25.0099 41.9342 25.8321 41.9332C26.314 41.9325 26.794 41.9135 27.2705 41.8769V43.398ZM47.876 25.8199C47.876 26.6276 47.2188 27.2847 46.4111 27.2847H44.3355C44.9172 24.8384 45.0064 22.3133 44.5976 19.7644C44.5293 19.3388 44.4445 18.9157 44.3456 18.4957H46.4111C47.2188 18.4957 47.876 19.1528 47.876 19.9605V25.8199Z" fill="#E8CE23"/>
        <path d="M18.4814 21.4258H21.4111V24.3555H18.4814V21.4258Z" fill="#E8CE23"/>
        <path d="M24.3408 21.4258H27.2705V24.3555H24.3408V21.4258Z" fill="#E8CE23"/>
        <path d="M30.2002 21.4258H33.1299V24.3555H30.2002V21.4258Z" fill="#E8CE23"/>
        <path d="M12.6221 33.1445V36.0742H25.8057C33.0751 36.0742 38.9893 30.1601 38.9893 22.8906C38.9893 15.6212 33.0751 9.70703 25.8057 9.70703C18.5362 9.70703 12.6221 15.6212 12.6221 22.8906C12.6221 25.8534 13.6171 28.7181 15.4374 31.0341C15.0843 32.2687 13.9567 33.1445 12.6221 33.1445ZM25.8057 12.6367C31.4597 12.6367 36.0596 17.2366 36.0596 22.8906C36.0596 28.5446 31.4597 33.1445 25.8057 33.1445H17.6979C18.1177 32.4182 18.379 31.605 18.4568 30.7547L18.5144 30.1275L18.0986 29.6544C16.4563 27.7845 15.5518 25.3824 15.5518 22.8906C15.5518 17.2366 20.1517 12.6367 25.8057 12.6367Z" fill="white"/>
    </g>
    <defs>
        <clipPath id="clip0_16_8545">
            <rect width="50" height="50" fill="white" transform="translate(0.805664 0.820312)"/>
        </clipPath>
    </defs>
</svg>
