<svg width="9" height="6" viewBox="0 0 9 6" fill="none" xmlns="http://www.w3.org/2000/svg">
    <path d="M8.15945 1.03352C8.01892 0.893836 7.82884 0.81543 7.6307 0.81543C7.43256 0.81543 7.24247 0.893836 7.10195 1.03352L4.40945 3.68852L1.75445 1.03352C1.61392 0.893836 1.42384 0.81543 1.2257 0.81543C1.02756 0.81543 0.837468 0.893836 0.696946 1.03352C0.62665 1.10325 0.570854 1.1862 0.532778 1.27759C0.494701 1.36899 0.475098 1.46702 0.475098 1.56602C0.475098 1.66503 0.494701 1.76306 0.532778 1.85446C0.570854 1.94585 0.62665 2.0288 0.696946 2.09852L3.87695 5.27852C3.94667 5.34882 4.02962 5.40462 4.12101 5.44269C4.21241 5.48077 4.31044 5.50037 4.40945 5.50037C4.50846 5.50037 4.60648 5.48077 4.69788 5.44269C4.78927 5.40462 4.87222 5.34882 4.94195 5.27852L8.15945 2.09852C8.22974 2.0288 8.28554 1.94585 8.32361 1.85446C8.36169 1.76306 8.3813 1.66503 8.3813 1.56602C8.3813 1.46702 8.36169 1.36899 8.32361 1.27759C8.28554 1.1862 8.22974 1.10325 8.15945 1.03352Z"
          fill="currentColor"/>
</svg>
