<svg width="55" height="57" viewBox="0 0 55 57" fill="none" xmlns="http://www.w3.org/2000/svg">
    <path d="M52.6123 46.5156H51.0303C51.0303 44.7622 51.0303 3.81694 51.0303 2.10938C51.0303 1.20331 50.3221 0.46875 49.4482 0.46875H14.5381C14.3197 0.46875 14.1116 0.514688 13.9223 0.597703C13.3545 0.84675 12.9561 1.42983 12.9561 2.10938V8.67177V8.67188C12.9561 9.57794 13.6644 10.3125 14.5381 10.3125H16.1201C16.1201 10.8152 16.1201 23.2061 16.1201 23.5469H4.94043C4.06673 23.5469 3.3584 24.2814 3.3584 25.1875V46.5156H1.77637C0.902664 46.5156 0.194336 47.2502 0.194336 48.1562V54.8281C0.194336 55.7342 0.902664 56.4688 1.77637 56.4688H52.6123C53.486 56.4688 54.1943 55.7342 54.1943 54.8281V48.1562C54.1943 47.2502 53.486 46.5156 52.6123 46.5156ZM16.1201 3.75H47.8662V23.5469C46.5083 23.5469 20.5455 23.5469 19.2842 23.5469V20.2656C20.411 20.2656 42.1705 20.2656 43.1201 20.2656C43.9938 20.2656 44.7021 19.5312 44.7021 18.625V8.67188C44.7021 7.76581 43.9939 7.03125 43.1201 7.03125C41.9329 7.03125 17.1507 7.03125 16.1201 7.03125V3.75ZM19.2842 16.9844V10.3125H32.0459V16.9844H19.2842ZM35.21 16.9844V10.3125H41.5381V16.9844H35.21ZM6.52246 26.8281C7.64212 26.8281 46.7602 26.8281 47.8662 26.8281V30.1094C47.1221 30.1094 11.9834 30.1094 11.2686 30.1094C10.3949 30.1094 9.68652 30.8439 9.68652 31.75V41.5938C9.68652 42.4998 10.3949 43.2344 11.2686 43.2344H32.0459V46.5156H6.52246V26.8281ZM47.8662 33.3906V46.5156H41.5381V33.3906H47.8662ZM38.374 33.3906V46.5156H35.21C35.21 45.9713 35.21 34.0172 35.21 33.3906H38.374ZM32.0459 33.3906V39.9531H12.8506V33.3906H32.0459ZM51.0303 53.1875H3.3584V49.7969C5.75096 49.7969 49.8971 49.7969 51.0303 49.7969V53.1875Z"
          fill="currentColor"/>
</svg>
