<svg width="20" height="18" viewBox="0 0 20 18" fill="none" xmlns="http://www.w3.org/2000/svg">
    <path d="M6.52295 4.49378C6.63503 4.46856 6.72466 4.38461 6.75716 4.27443C6.78966 4.16424 6.75994 4.04509 6.67949 3.96308C6.59903 3.88107 6.48048 3.84906 6.36968 3.87945C3.83041 4.51127 2.04907 6.79301 2.05225 9.40971C2.05225 9.5846 2.19403 9.72638 2.36892 9.72638C2.54381 9.72638 2.68558 9.5846 2.68558 9.40971C2.68278 7.08385 4.26598 5.05567 6.52295 4.49378Z"
          fill="currentColor"/>
    <path d="M18.8356 11.3097H14.719V9.40967C14.7216 8.00018 14.2933 6.62357 13.4916 5.46432L13.6635 3.32207C13.6885 3.01319 13.5612 2.71156 13.3225 2.51393C12.4071 1.76883 11.3502 1.21686 10.2157 0.891332C9.89158 0.802007 9.54445 0.892016 9.30461 1.12757L7.94041 2.45218C7.87898 2.4506 7.81564 2.443 7.75231 2.443C3.90654 2.44736 0.790007 5.56389 0.785645 9.40967V15.1097C0.786692 16.1586 1.63674 17.0086 2.68564 17.0097H12.5023C13.6032 17.0084 14.5364 16.1993 14.6936 15.1097H17.569V16.0597C17.569 16.5843 17.9943 17.0097 18.519 17.0097H18.8356C19.3603 17.0097 19.7856 16.5843 19.7856 16.0597V12.2597C19.7856 11.735 19.3603 11.3097 18.8356 11.3097ZM9.74731 1.57977C9.82422 1.5021 9.93682 1.47153 10.0424 1.49965C11.094 1.80192 12.0736 2.31378 12.9222 3.00445C13 3.07086 13.0409 3.17076 13.0321 3.27267L12.914 4.74263C12.8354 4.65618 12.7617 4.56625 12.6787 4.48328C11.6232 3.42555 10.2532 2.73856 8.77419 2.52533L9.74731 1.57977ZM4.58564 16.3763H2.68564C1.98608 16.3763 1.41898 15.8092 1.41898 15.1097V12.2597C1.41898 12.0848 1.56075 11.943 1.73564 11.943H1.97916C2.09486 11.943 2.20134 12.0062 2.25688 12.1077C2.89537 13.2962 3.8674 14.2722 5.05336 14.9155C5.15553 14.97 5.21924 15.0765 5.21898 15.1923V16.0597C5.21898 16.2346 5.0772 16.3763 4.90231 16.3763H4.58564ZM14.0856 14.793C14.0846 15.667 13.3763 16.3753 12.5023 16.3763H5.79404C5.83155 16.2749 5.85126 16.1678 5.85231 16.0597V15.1923C5.85404 14.8389 5.65729 14.5144 5.34311 14.3525C4.27335 13.762 3.39511 12.8774 2.81231 11.8033C2.64561 11.499 2.3262 11.3097 1.97916 11.3097H1.73564C1.62752 11.3107 1.52039 11.3304 1.41898 11.3679V9.40967C1.41898 5.91186 4.25451 3.07633 7.75231 3.07633C11.2501 3.07633 14.0856 5.91186 14.0856 9.40967V14.793ZM14.719 14.4763V11.943H15.669V12.5763C15.669 12.7512 15.8108 12.893 15.9856 12.893C16.1605 12.893 16.3023 12.7512 16.3023 12.5763V11.943H17.569V14.4763H14.719ZM19.1523 16.0597C19.1523 16.2346 19.0105 16.3763 18.8356 16.3763H18.519C18.3441 16.3763 18.2023 16.2346 18.2023 16.0597V11.943H18.8356C19.0105 11.943 19.1523 12.0848 19.1523 12.2597V16.0597Z"
          fill="currentColor"/>
    <path d="M7.75221 4.34329C7.9271 4.34329 8.06888 4.20152 8.06888 4.02663C8.06888 3.85174 7.9271 3.70996 7.75221 3.70996C7.57732 3.70996 7.43555 3.85174 7.43555 4.02663C7.43555 4.20152 7.57732 4.34329 7.75221 4.34329Z"
          fill="currentColor"/>
    <path d="M10.9189 14.4766C10.9189 15.1762 11.4861 15.7433 12.1856 15.7433C12.8852 15.7433 13.4523 15.1762 13.4523 14.4766C13.4523 13.7771 12.8852 13.21 12.1856 13.21C11.4861 13.21 10.9189 13.7771 10.9189 14.4766ZM12.8189 14.4766C12.8189 14.8264 12.5354 15.11 12.1856 15.11C11.8358 15.11 11.5523 14.8264 11.5523 14.4766C11.5523 14.1268 11.8358 13.8433 12.1856 13.8433C12.5354 13.8433 12.8189 14.1268 12.8189 14.4766Z"
          fill="currentColor"/>
    <path d="M7.75238 6.24316C5.82858 6.24316 4.26904 7.80271 4.26904 9.7265C4.26904 11.6503 5.82858 13.2098 7.75238 13.2098C9.67617 13.2098 11.2357 11.6503 11.2357 9.7265C11.2334 7.80365 9.67523 6.24543 7.75238 6.24316ZM7.75238 12.5765C6.17836 12.5765 4.90238 11.3005 4.90238 9.7265C4.90238 8.15249 6.17836 6.8765 7.75238 6.8765C9.32639 6.8765 10.6024 8.15249 10.6024 9.7265C10.6006 11.2998 9.32566 12.5748 7.75238 12.5765Z"
          fill="currentColor"/>
</svg>
