<svg width="53" height="55" viewBox="0 0 53 55" fill="none" xmlns="http://www.w3.org/2000/svg">
    <g clip-path="url(#clip0_11_7109)">
        <path d="M48.8335 19.6566H40.6154L31.1827 9.86118C30.7591 9.42127 30.0745 9.42127 29.6509 9.86118C29.2273 10.3011 29.2273 11.0121 29.6509 11.452L39.4009 21.577C39.6035 21.7884 39.8786 21.9066 40.1668 21.9066H48.8335C49.4315 21.9066 49.9169 22.4106 49.9169 23.0316V50.0316C49.9169 50.6526 49.4315 51.1566 48.8335 51.1566H3.3335C2.73661 51.1566 2.25013 50.6526 2.25013 50.0316V23.0316C2.25013 22.4106 2.73651 21.9066 3.3335 21.9066H12.0001C12.2872 21.9066 12.5635 21.7884 12.766 21.577L22.516 11.452C22.9396 11.0121 22.9396 10.3011 22.516 9.86118C22.0924 9.42127 21.4078 9.42127 20.9841 9.86118L11.5515 19.6566H3.3335C1.54163 19.6566 0.0834961 21.1708 0.0834961 23.0316V50.0316C0.0834961 51.8924 1.54163 53.4066 3.3335 53.4066H48.8335C50.6254 53.4066 52.0835 51.8924 52.0835 50.0316V23.0316C52.0835 21.1709 50.6254 19.6566 48.8335 19.6566Z"
              fill="currentColor"/>
        <path d="M26.0836 1.65625C23.0969 1.65625 20.667 4.17959 20.667 7.28122C20.667 10.3828 23.0969 12.9062 26.0836 12.9062C29.0704 12.9062 31.5003 10.3828 31.5003 7.28122C31.5003 4.17959 29.0704 1.65625 26.0836 1.65625ZM26.0836 10.6562C24.2918 10.6562 22.8336 9.142 22.8336 7.28122C22.8336 5.42043 24.2918 3.90621 26.0836 3.90621C27.8755 3.90621 29.3336 5.42043 29.3336 7.28122C29.3336 9.142 27.8755 10.6562 26.0836 10.6562Z"
              fill="currentColor"/>
        <path d="M33.6671 19.6562H18.5004C17.9024 19.6562 17.417 20.1591 17.417 20.7813C17.417 21.4034 17.9024 21.9063 18.5004 21.9063H33.667C34.2661 21.9063 34.7504 21.4034 34.7504 20.7813C34.7504 20.1591 34.2661 19.6562 33.6671 19.6562Z"
              fill="currentColor"/>
        <path d="M22.8335 41.0313H18.5001V32.0313H22.8335C23.4315 32.0313 23.9169 31.5284 23.9169 30.9063C23.9169 30.2841 23.4315 29.7812 22.8335 29.7812H17.4169C16.8189 29.7812 16.3335 30.2841 16.3335 30.9063V42.1563C16.3335 42.7785 16.8189 43.2814 17.4169 43.2814H22.8335C23.4315 43.2814 23.9169 42.7785 23.9169 42.1563C23.9169 41.5342 23.4315 41.0313 22.8335 41.0313Z"
              fill="currentColor"/>
        <path d="M22.8335 35.4062H17.4169C16.8189 35.4062 16.3335 35.9091 16.3335 36.5313C16.3335 37.1534 16.8189 37.6563 17.4169 37.6563H22.8335C23.4315 37.6563 23.9169 37.1534 23.9169 36.5313C23.9169 35.9091 23.4315 35.4062 22.8335 35.4062Z"
              fill="currentColor"/>
        <path d="M10.9167 29.7812H6.58337C5.98537 29.7812 5.5 30.2841 5.5 30.9063V42.1563C5.5 42.7785 5.98537 43.2814 6.58337 43.2814C7.18137 43.2814 7.66673 42.7785 7.66673 42.1563V38.7813H10.9167C12.7086 38.7813 14.1667 37.2671 14.1667 35.4063V33.1564C14.1667 31.2956 12.7085 29.7812 10.9167 29.7812ZM12 35.4063C12 36.0273 11.5136 36.5314 10.9166 36.5314H7.66663V32.0313H10.9166C11.5135 32.0313 12 32.5354 12 33.1564V35.4063Z"
              fill="currentColor"/>
        <path d="M11.4012 36.6503C10.8671 36.3747 10.2182 36.5975 9.94959 37.152C9.68095 37.7067 9.89647 38.3828 10.4306 38.6618C11.1423 39.0342 11.9223 39.6755 12.0003 39.906V42.156C12.0003 42.7782 12.4857 43.281 13.0837 43.281C13.6817 43.281 14.1671 42.7782 14.1671 42.156V39.906C14.167 38.2175 12.0501 36.9867 11.4012 36.6503Z"
              fill="currentColor"/>
        <path d="M34.7501 29.7814C34.151 29.7814 33.6668 30.2843 33.6668 30.9064V38.5879L28.054 30.2618C27.7831 29.859 27.2903 29.6835 26.8406 29.8332C26.3901 29.9817 26.0835 30.4149 26.0835 30.9064V42.1565C26.0835 42.7786 26.5689 43.2815 27.1669 43.2815C27.766 43.2815 28.2502 42.7786 28.2502 42.1565V34.475L33.863 42.8011C34.0688 43.1082 34.4036 43.2815 34.7502 43.2815C34.8596 43.2815 34.968 43.2646 35.0763 43.2297C35.527 43.0812 35.8336 42.6481 35.8336 42.1565V30.9064C35.8335 30.2843 35.3492 29.7814 34.7501 29.7814Z"
              fill="currentColor"/>
        <path d="M45.5834 29.7812H39.0834C38.4842 29.7812 38 30.2841 38 30.9063C38 31.5284 38.4842 32.0313 39.0834 32.0313H45.5834C46.1825 32.0313 46.6667 31.5284 46.6667 30.9063C46.6667 30.2841 46.1825 29.7812 45.5834 29.7812Z"
              fill="currentColor"/>
        <path d="M42.3334 29.7812C41.7342 29.7812 41.25 30.2841 41.25 30.9063V42.1563C41.25 42.7785 41.7342 43.2814 42.3334 43.2814C42.9325 43.2814 43.4167 42.7785 43.4167 42.1563V30.9063C43.4167 30.2841 42.9325 29.7812 42.3334 29.7812Z"
              fill="currentColor"/>
    </g>
    <defs>
        <clipPath id="clip0_11_7109">
            <rect width="52" height="54" fill="white" transform="translate(0.0834961 0.53125)"/>
        </clipPath>
    </defs>
</svg>
