<svg width="18" height="18" viewBox="0 0 18 18" fill="none" xmlns="http://www.w3.org/2000/svg">
    <path d="M17.4005 14.4984L13.2989 12.5843C13.2933 12.5778 13.2862 12.5724 13.2797 12.5665C13.2726 12.56 13.2655 12.5537 13.2579 12.5478C13.2528 12.5438 13.2485 12.5387 13.2431 12.535C13.2338 12.5288 13.2236 12.5254 13.2136 12.5206C13.2083 12.5178 13.204 12.5138 13.1986 12.5112L11.1667 11.6405L7.93337 10.2546L8.82622 9.9571L10.9953 10.8548H10.9956L16.9457 13.3168C16.9803 13.3313 17.0171 13.3383 17.0539 13.3383C17.1092 13.3383 17.1642 13.3222 17.2115 13.2907C17.29 13.238 17.3373 13.1496 17.3373 13.055V3.98771C17.3373 3.87295 17.2681 3.76952 17.1625 3.72589L14.8956 2.78771H14.8953L8.94522 0.325656C8.92426 0.316873 8.90244 0.311205 8.88034 0.307805C8.87977 0.307805 8.87949 0.307522 8.87892 0.307522C8.83642 0.301288 8.79335 0.305538 8.75254 0.318289C8.75084 0.318856 8.74886 0.318289 8.74716 0.318856L0.246582 3.15238L0.425944 3.6899L8.55335 0.980484V9.45046L7.41994 9.82817V7.38794C7.41994 7.29811 7.37743 7.21368 7.30546 7.16012C7.23321 7.10685 7.13999 7.09042 7.05413 7.11677L0.537018 9.10024C0.417727 9.13651 0.336121 9.24673 0.336121 9.37141V12.2049V13.905C0.336121 14.0141 0.398742 14.1136 0.497066 14.1606L3.51137 15.6023L2.20228 16.1974C2.10169 16.2427 2.03709 16.3427 2.03624 16.453C2.03539 16.5632 2.09857 16.6641 2.19832 16.7114L3.89985 17.5175L4.14211 17.0052L2.99227 16.4606L4.17838 15.9217L7.01389 17.2778C7.02211 17.2818 7.03089 17.2832 7.03911 17.286C7.04846 17.2894 7.05753 17.2928 7.06716 17.2954C7.0836 17.2996 7.10032 17.3016 7.11703 17.3027C7.12383 17.303 7.13007 17.3053 7.13658 17.3053C7.13913 17.3053 7.1414 17.3044 7.14367 17.3041C7.16124 17.3036 7.17824 17.3005 7.19524 17.2968C7.20261 17.2951 7.21026 17.2948 7.21762 17.2925C7.22499 17.2903 7.23208 17.2866 7.23944 17.2837C7.24228 17.2826 7.24511 17.2832 7.24794 17.282L13.1983 14.7319C13.3029 14.6877 13.3703 14.5851 13.3703 14.4718V13.2431L16.6031 14.752L11.5529 17.0474L11.7875 17.5631L17.3979 15.013C17.4985 14.9673 17.5634 14.867 17.564 14.7565C17.5645 14.646 17.5005 14.5451 17.4005 14.4984ZM15.0705 10.5048V7.67129V6.53788V3.4737L16.7706 4.17699V12.6308L15.0705 11.9272V10.5048ZM14.5038 11.6929L11.8731 10.6043L13.3502 10.2353L14.5038 10.6966V11.6929ZM12.5203 9.85849V7.60924L13.087 7.46756V9.71681L12.5203 9.85849ZM14.5038 10.0863L13.6537 9.74628V7.5231L14.0787 7.69311L14.5038 7.86312V10.0863ZM14.5038 7.25278L14.0787 7.08277L13.6537 6.91276V6.38969L14.5038 6.72971V7.25278ZM11.3869 1.94927L14.5038 3.23909V6.11937L13.6537 5.77934V4.83776H13.087V5.74988L11.3869 6.1749V1.94927ZM11.3869 6.75918L13.087 6.33415V6.88329L11.3869 7.30832V6.75918ZM11.3869 7.89259L11.9536 7.75091V10.0002L11.3869 10.1418V7.89259ZM9.12005 1.01137L10.8202 1.71493V6.53788V7.67129V10.1688L9.12005 9.4652V1.01137ZM7.12015 10.5227L10.3424 11.9037L5.28063 14.1201L1.39926 12.2636L1.83506 12.131L3.53546 11.6136L4.25971 11.3931L4.66887 11.2687H4.66915L6.36927 10.7513L7.12015 10.5227ZM2.03624 11.4776V10.7091L3.16965 10.3314V11.1327L2.03624 11.4776ZM4.86976 10.6153V9.85906L6.00317 9.48135V10.2702L5.53083 10.4139L4.86976 10.6153ZM0.902827 9.58137L6.85323 7.77046V10.0118L6.56988 10.0979V9.08805C6.56988 8.9971 6.52624 8.91124 6.45229 8.85825C6.37777 8.8047 6.28284 8.79053 6.19699 8.81915L4.49687 9.38586C4.38098 9.42468 4.30306 9.53263 4.30306 9.65476V10.7876L3.73635 10.9602V9.93811C3.73635 9.84716 3.69272 9.76158 3.61876 9.70831C3.54452 9.65504 3.4496 9.64059 3.36346 9.66921L1.66335 10.2359C1.54745 10.2747 1.46953 10.3827 1.46953 10.5048V11.6501L0.902827 11.8224V9.58137ZM6.85323 16.5722L4.30419 15.353H4.30391L0.902827 13.7265V12.6546L6.85323 15.5003V16.5722ZM7.1431 15.0107L5.95557 14.4429L11.0562 12.2098L12.3676 12.7716L7.1431 15.0107ZM12.8036 14.285L7.41994 16.5924V15.5088L12.8036 13.2015V14.285Z"
          fill="currentColor"/>
    <path d="M6.4518 2.62396C6.37728 2.57069 6.28236 2.55596 6.1965 2.58486L1.09616 4.28498C0.980266 4.3238 0.902344 4.43175 0.902344 4.55388V7.95411C0.902344 8.04506 0.94598 8.13064 1.01994 8.18391C1.06896 8.21933 1.12704 8.23746 1.1857 8.23746C1.21573 8.23746 1.24605 8.23265 1.27524 8.22301L6.37558 6.5229C6.49147 6.48408 6.5694 6.37612 6.5694 6.25399V2.85376C6.5694 2.76281 6.52576 2.67723 6.4518 2.62396ZM6.00269 6.04998L1.46905 7.5611V4.75817L6.00269 3.24706V6.04998Z"
          fill="currentColor"/>
    <path d="M4.95277 4.35352L3.94319 5.36338L3.25946 5.13529C3.17643 5.10808 3.08548 5.11998 3.01266 5.16844L2.1626 5.73514L2.47684 6.20664L3.21157 5.71672L3.93015 5.95616C4.03187 5.99016 4.14437 5.96324 4.22002 5.88759L5.35343 4.75418L4.95277 4.35352Z"
          fill="currentColor"/>
</svg>
