<svg width="61" height="61" viewBox="0 0 61 61" fill="none" xmlns="http://www.w3.org/2000/svg">
    <path d="M53.5016 24.5816H47.3401L34.6845 8.75763C35.3682 7.84625 35.7786 6.71948 35.7786 5.49523C35.7786 2.48845 33.3321 0.0419922 30.3253 0.0419922C27.3185 0.0419922 24.8721 2.48845 24.8721 5.49523C24.8721 6.71948 25.2824 7.84625 25.9661 8.75763L13.3105 24.5816H7.14906C3.39042 24.5816 0.33252 27.6395 0.33252 31.3981V53.211C0.33252 56.9697 3.39042 60.0276 7.14906 60.0276H53.5016C57.2602 60.0276 60.3181 56.9697 60.3181 53.211V31.3981C60.3181 27.6395 57.2602 24.5816 53.5016 24.5816ZM30.3253 2.76861C31.829 2.76861 33.0519 3.9915 33.0519 5.49523C33.0519 6.99896 31.829 8.22185 30.3253 8.22185C28.8216 8.22185 27.5987 6.99896 27.5987 5.49523C27.5987 3.9915 28.8216 2.76861 30.3253 2.76861ZM28.0915 10.4645C28.7739 10.7726 29.5291 10.9485 30.3253 10.9485C31.1215 10.9485 31.8768 10.7726 32.5591 10.4645L43.8493 24.5816H16.8013L28.0915 10.4645ZM57.5915 53.211C57.5915 55.4666 55.7572 57.301 53.5016 57.301H7.14906C4.89347 57.301 3.05914 55.4666 3.05914 53.211V31.3981C3.05914 29.1425 4.89347 27.3082 7.14906 27.3082H53.5016C55.7572 27.3082 57.5915 29.1425 57.5915 31.3981V53.211ZM26.917 35.488H25.5537C23.2981 35.488 21.4638 37.3224 21.4638 39.578V47.7578C21.4638 48.5104 22.0746 49.1211 22.8271 49.1211C23.5797 49.1211 24.1904 48.5104 24.1904 47.7578V45.0312H28.2804V47.7578C28.2804 48.5104 28.8911 49.1211 29.6437 49.1211C30.3962 49.1211 31.007 48.5104 31.007 47.7578V39.578C31.007 37.3224 29.1726 35.488 26.917 35.488ZM28.2804 42.3046H24.1904V39.578C24.1904 38.8261 24.8019 38.2146 25.5537 38.2146H26.917C27.6689 38.2146 28.2804 38.8261 28.2804 39.578V42.3046ZM41.2318 47.7578C41.2318 48.5104 40.621 49.1211 39.8685 49.1211H35.0969C34.3444 49.1211 33.7336 48.5104 33.7336 47.7578V36.8513C33.7336 36.0988 34.3444 35.488 35.0969 35.488C35.8494 35.488 36.4602 36.0988 36.4602 36.8513V46.3945H39.8685C40.621 46.3945 41.2318 47.0053 41.2318 47.7578ZM45.3217 38.2146V40.9413H48.0483C48.8009 40.9413 49.4116 41.552 49.4116 42.3046C49.4116 43.0571 48.8009 43.6679 48.0483 43.6679H45.3217V46.3945H49.4116C50.1642 46.3945 50.775 47.0053 50.775 47.7578C50.775 48.5104 50.1642 49.1211 49.4116 49.1211H43.9584C43.2059 49.1211 42.5951 48.5104 42.5951 47.7578V36.8513C42.5951 36.0988 43.2059 35.488 43.9584 35.488H49.4116C50.1642 35.488 50.775 36.0988 50.775 36.8513C50.775 37.6039 50.1642 38.2146 49.4116 38.2146H45.3217ZM19.4188 44.3495V45.7128C19.4188 47.5922 17.8899 49.1211 16.0106 49.1211H11.9206C11.1681 49.1211 10.5573 48.5104 10.5573 47.7578C10.5573 47.0053 11.1681 46.3945 11.9206 46.3945H16.0106C16.3868 46.3945 16.6922 46.0891 16.6922 45.7128V44.3495C16.6922 43.9733 16.3868 43.6679 16.0106 43.6679H13.284C11.4046 43.6679 9.87568 42.1389 9.87568 40.2596V38.8963C9.87568 37.017 11.4046 35.488 13.284 35.488H17.3739C18.1264 35.488 18.7372 36.0988 18.7372 36.8513C18.7372 37.6039 18.1264 38.2146 17.3739 38.2146H13.284C12.9077 38.2146 12.6023 38.52 12.6023 38.8963V40.2596C12.6023 40.6359 12.9077 40.9413 13.284 40.9413H16.0106C17.8899 40.9413 19.4188 42.4702 19.4188 44.3495Z"
          fill="currentColor"/>
</svg>
