<svg width="389" height="299" viewBox="0 0 389 299" fill="none" xmlns="http://www.w3.org/2000/svg">
<path d="M351.672 6.50641H204.83V187.315H351.672V6.50641Z" fill="white"/>
<path d="M267.467 22.1334H217.099V27.5576H267.467V22.1334Z" fill="#FDB933"/>
<path d="M245.512 31.0447H217.099V36.4689H245.512V31.0447Z" fill="#FDB933"/>
<path d="M339.661 48.9963H217.099V54.4206H339.661V48.9963Z" fill="#FDB933"/>
<path d="M339.661 58.0367H217.099V63.461H339.661V58.0367Z" fill="#FDB933"/>
<path d="M283.74 66.948H217.099V72.3722H283.74V66.948Z" fill="#FDB933"/>
<path d="M339.661 84.8997H217.099V90.3239H339.661V84.8997Z" fill="#FDB933"/>
<path d="M339.661 93.8109H217.099V99.2352H339.661V93.8109Z" fill="#FDB933"/>
<path d="M339.661 102.851H217.099V108.276H339.661V102.851Z" fill="#FDB933"/>
<path d="M307.632 111.763H217.099V117.187H307.632V111.763Z" fill="#FDB933"/>
<path d="M339.661 129.714H217.099V135.138H339.661V129.714Z" fill="#FDB933"/>
<path d="M276.249 138.755H217.099V144.179H276.249V138.755Z" fill="#FDB933"/>
<path d="M339.661 156.577H289.81V162.001H339.661V156.577Z" fill="#FDB933"/>
<path d="M339.532 165.618H302.079V171.042H339.532V165.618Z" fill="#FDB933"/>
<path d="M157.691 30.0115H14.9814V100.656H157.691V30.0115Z" fill="#FDB933"/>
<path d="M22.9888 79.7337V51.0627C30.0919 51.0627 35.9036 45.251 35.9036 38.1478H136.64C136.64 45.251 142.451 51.0627 149.554 51.0627V79.7337C142.451 79.7337 136.64 85.5454 136.64 92.6486H35.9036C35.9036 85.5454 30.0919 79.7337 22.9888 79.7337Z" fill="#E8CE23"/>
<path d="M86.4006 87.4826C97.9556 87.4826 107.323 78.1155 107.323 66.5605C107.323 55.0056 97.9556 45.6385 86.4006 45.6385C74.8457 45.6385 65.4785 55.0056 65.4785 66.5605C65.4785 78.1155 74.8457 87.4826 86.4006 87.4826Z" fill="#FDB933"/>
<path d="M44.298 79.6046V77.2799C41.5859 76.8924 39.1321 75.601 36.9365 73.6637L39.9069 70.0476C41.5859 71.4682 43.0065 72.3722 44.4272 72.7597V68.1103C42.2316 67.5937 40.5527 66.8189 39.5195 65.7857C38.4863 64.8816 37.9697 63.461 37.9697 61.6529C37.9697 59.8448 38.6155 58.4242 39.7778 57.2618C40.9401 56.0995 42.4899 55.4538 44.4272 55.1955V53.6457H47.785V55.1955C49.8514 55.4538 52.0469 56.3578 54.1133 57.7784L51.5303 61.5238C50.2388 60.6197 48.9474 59.974 47.785 59.5865V64.1067C50.1097 64.7525 51.7886 65.5274 52.8218 66.4314C53.855 67.4646 54.5007 68.8852 54.5007 70.6933C54.5007 72.5014 53.855 74.0512 52.6927 75.2135C51.5303 76.3759 49.8514 77.1507 47.785 77.2799V79.4754H44.298V79.6046ZM44.298 59.4574C43.394 59.7157 42.8774 60.3614 42.8774 61.1363C42.8774 62.0403 43.394 62.5569 44.298 63.0735V59.4574ZM49.3348 71.0807C49.3348 70.6933 49.2057 70.3059 48.9474 69.9184C48.6891 69.6601 48.3016 69.4018 47.6559 69.1435V73.018C48.8182 72.6305 49.3348 71.9848 49.3348 71.0807Z" fill="#FDB933"/>
<path d="M125.662 79.6046V77.2799C122.95 76.8924 120.496 75.601 118.3 73.6637L121.271 70.0476C122.95 71.4682 124.37 72.3722 125.791 72.7597V68.1103C123.595 67.5937 121.916 66.8189 120.883 65.7857C119.85 64.8816 119.333 63.461 119.333 61.6529C119.333 59.8448 119.979 58.4242 121.142 57.2618C122.304 56.0995 123.854 55.4538 125.791 55.1955V53.6457H129.149V55.1955C131.215 55.4538 133.411 56.3578 135.477 57.7784L132.894 61.5238C131.603 60.6197 130.311 59.974 129.149 59.5865V64.1067C131.473 64.7525 133.152 65.5274 134.186 66.4314C135.219 67.4646 135.865 68.8852 135.865 70.6933C135.865 72.5014 135.219 74.0512 134.056 75.2135C132.894 76.3759 131.215 77.1507 129.149 77.2799V79.4754H125.662V79.6046ZM125.662 59.4574C124.758 59.7157 124.241 60.3614 124.241 61.1363C124.241 62.0403 124.758 62.5569 125.662 63.0735V59.4574ZM130.699 71.0807C130.699 70.6933 130.569 70.3059 130.311 69.9184C130.053 69.6601 129.665 69.4018 129.02 69.1435V73.018C130.182 72.6305 130.699 71.9848 130.699 71.0807Z" fill="#FDB933"/>
<path d="M189.719 54.0331H47.0098V124.677H189.719V54.0331Z" fill="#FDB933"/>
<path d="M54.8882 103.755V75.0844C61.9914 75.0844 67.8031 69.2727 67.8031 62.1695H168.539C168.539 69.2727 174.351 75.0844 181.454 75.0844V103.755C174.351 103.755 168.539 109.567 168.539 116.67H67.8031C67.9322 109.567 62.1205 103.755 54.8882 103.755Z" fill="#E8CE23"/>
<path d="M118.3 111.504C129.855 111.504 139.222 102.137 139.222 90.5822C139.222 79.0273 129.855 69.6601 118.3 69.6601C106.745 69.6601 97.3779 79.0273 97.3779 90.5822C97.3779 102.137 106.745 111.504 118.3 111.504Z" fill="#FDB933"/>
<path d="M76.3268 103.497V101.172C73.6147 100.785 71.1609 99.4935 68.9653 97.5562L71.9357 93.9401C73.6147 95.3607 75.0353 96.2647 76.4559 96.6522V92.0028C74.2604 91.4863 72.5815 90.7114 71.5483 89.6782C70.5151 88.7741 69.9985 87.3535 69.9985 85.5454C69.9985 83.7373 70.6443 82.3167 71.8066 81.1543C72.9689 79.992 74.5187 79.3463 76.4559 79.088V77.5382H79.8138V79.088C81.8802 79.3463 84.0757 80.2503 86.1421 81.671L83.5591 85.4163C82.2676 84.5122 80.9762 83.8665 79.8138 83.479V87.9992C82.1385 88.645 83.8174 89.4199 84.8506 90.3239C85.8838 91.3571 86.5296 92.7777 86.5296 94.5858C86.5296 96.3939 85.8838 97.9437 84.7215 99.106C83.5591 100.268 81.8802 101.043 79.8138 101.172V103.368H76.3268V103.497ZM76.3268 83.479C75.4228 83.7373 74.9062 84.3831 74.9062 85.158C74.9062 86.062 75.4228 86.5786 76.3268 87.0952V83.479ZM81.2345 94.9732C81.2345 94.5858 81.1053 94.1984 80.847 93.8109C80.5887 93.5526 80.2013 93.2943 79.5555 93.036V96.9105C80.7179 96.6522 81.2345 96.0064 81.2345 94.9732Z" fill="#FDB933"/>
<path d="M157.691 103.497V101.172C154.978 100.785 152.525 99.4935 150.329 97.5562L153.3 93.9401C154.978 95.3607 156.399 96.2647 157.82 96.6522V92.0028C155.624 91.4863 153.945 90.7114 152.912 89.6782C151.879 88.7741 151.362 87.3535 151.362 85.5454C151.362 83.7373 152.008 82.3167 153.17 81.1543C154.333 79.992 155.882 79.3463 157.82 79.088V77.5382H161.178V79.088C163.244 79.3463 165.44 80.2503 167.506 81.671L164.923 85.4163C163.631 84.5122 162.34 83.8665 161.178 83.479V87.9992C163.502 88.645 165.181 89.4199 166.214 90.3239C167.248 91.3571 167.893 92.7777 167.893 94.5858C167.893 96.3939 167.248 97.9437 166.085 99.106C164.923 100.268 163.244 101.043 161.178 101.172V103.368H157.691V103.497ZM157.691 83.479C156.787 83.7373 156.27 84.3831 156.27 85.158C156.27 86.062 156.787 86.5786 157.691 87.0952V83.479ZM162.598 94.9732C162.598 94.5858 162.469 94.1984 162.211 93.8109C161.952 93.5526 161.565 93.2943 160.919 93.036V96.9105C162.082 96.6522 162.598 96.0064 162.598 94.9732Z" fill="#FDB933"/>
<path d="M34.8705 218.698C34.8705 218.698 2.84166 249.177 18.3395 298.512H34.8705H51.4016C66.8994 249.177 34.8705 218.698 34.8705 218.698Z" fill="#FDB933"/>
<path d="M28.1545 226.963C19.7598 239.103 7.61986 264.287 18.3392 298.512H29.7043C20.1473 276.04 19.6307 249.823 28.1545 226.963Z" fill="#E8CE23"/>
<path d="M36.9365 290.375C36.9365 280.172 28.671 271.907 18.4683 271.907C8.26551 271.907 0 280.172 0 290.375C0 293.346 0.645743 296.058 1.93723 298.512H35.1284C36.2908 296.058 36.9365 293.346 36.9365 290.375Z" fill="#FDB933"/>
<path d="M11.8817 273.198C4.90765 275.911 0 282.626 0 290.504C0 293.475 0.645743 296.187 1.93723 298.641H12.3983C9.557 295.283 7.87807 291.021 7.74892 286.63C7.36147 281.722 9.0404 276.944 11.8817 273.198Z" fill="#E8CE23"/>
<path d="M35.5161 298.512H111.068V144.695L73.2275 93.036L35.5161 144.695V298.512Z" fill="#F4F4F4"/>
<path d="M258.814 144.695L220.974 93.036H73.2275L111.068 144.695H258.814Z" fill="#7C7C7C"/>
<path d="M258.814 144.695H111.068V298.512H258.814V144.695Z" fill="white"/>
<path d="M157.951 122.437H184.943V71.4234H157.951V122.437Z" fill="white"/>
<path d="M157.948 122.482L138.576 96.9105V71.4682H157.948V122.482Z" fill="#F4F4F4"/>
<path d="M184.941 71.4682H157.949V0.565582L184.941 71.4682Z" fill="#F4F4F4"/>
<path d="M138.576 71.4682H157.948V0.565582L138.576 71.4682Z" fill="#7C7C7C"/>
<path d="M79.3823 177.027H93.2012V161.916H79.3823V177.027Z" fill="#7C7C7C"/>
<path d="M55.1396 177.027H68.9585V161.916H55.1396V177.027Z" fill="#7C7C7C"/>
<path d="M225.323 178.437H239.142V163.327H225.323V178.437Z" fill="#F4F4F4"/>
<path d="M200.951 178.437H214.77V163.327H200.951V178.437Z" fill="#F4F4F4"/>
<path d="M155.038 178.437H168.857V163.327H155.038V178.437Z" fill="#F4F4F4"/>
<path d="M130.796 178.437H144.615V163.327H130.796V178.437Z" fill="#F4F4F4"/>
<path d="M225.323 208.939H239.142V193.829H225.323V208.939Z" fill="#F4F4F4"/>
<path d="M200.951 208.939H214.77V193.829H200.951V208.939Z" fill="#F4F4F4"/>
<path d="M155.038 208.939H168.857V193.829H155.038V208.939Z" fill="#F4F4F4"/>
<path d="M130.796 208.939H144.615V193.829H130.796V208.939Z" fill="#F4F4F4"/>
<path d="M225.323 239.571H239.142V224.46H225.323V239.571Z" fill="#F4F4F4"/>
<path d="M200.951 239.571H214.77V224.46H200.951V239.571Z" fill="#F4F4F4"/>
<path d="M155.038 239.571H168.857V224.46H155.038V239.571Z" fill="#F4F4F4"/>
<path d="M130.796 239.571H144.615V224.46H130.796V239.571Z" fill="#F4F4F4"/>
<path d="M225.323 270.202H239.142V255.092H225.323V270.202Z" fill="#F4F4F4"/>
<path d="M200.951 270.202H214.77V255.092H200.951V270.202Z" fill="#F4F4F4"/>
<path d="M155.038 270.202H168.857V255.092H155.038V270.202Z" fill="#F4F4F4"/>
<path d="M130.796 270.202H144.615V255.092H130.796V270.202Z" fill="#F4F4F4"/>
<path d="M79.3823 208.94H93.2012V193.829H79.3823V208.94Z" fill="#7C7C7C"/>
<path d="M55.1396 208.94H68.9585V193.829H55.1396V208.94Z" fill="#7C7C7C"/>
<path d="M79.3823 240.981H93.2012V225.871H79.3823V240.981Z" fill="#7C7C7C"/>
<path d="M55.1396 240.981H68.9585V225.871H55.1396V240.981Z" fill="#7C7C7C"/>
<path d="M61.0869 298.512H85.3669V273.069C85.3669 266.354 79.9426 260.929 73.2269 260.929C66.5112 260.929 61.0869 266.354 61.0869 273.069V298.512Z" fill="#7C7C7C"/>
<path d="M66.2529 134.622C66.2529 139.013 69.8691 142.629 74.2602 142.629C78.6512 142.629 82.2674 139.013 82.2674 134.622C82.2674 130.231 78.6512 126.615 74.2602 126.615C69.74 126.615 66.2529 130.231 66.2529 134.622Z" fill="#7C7C7C"/>
<path d="M144.647 218.698C144.647 218.698 112.618 249.177 128.116 298.512H144.647H161.178C176.676 249.177 144.647 218.698 144.647 218.698Z" fill="#FDB933"/>
<path d="M137.931 226.963C129.536 239.103 117.396 264.287 128.116 298.512H139.481C129.924 276.04 129.407 249.823 137.931 226.963Z" fill="#E8CE23"/>
<path d="M224.331 298.512H152.783V206.17L188.557 164.972L224.331 206.17V298.512Z" fill="#F4F4F4"/>
<path d="M188.557 164.972H313.315L349.089 206.17H224.331L188.557 164.972Z" fill="#7C7C7C"/>
<path d="M349.089 206.17H224.331V298.512H349.089V206.17Z" fill="white"/>
<path d="M188.556 255.763C181.582 255.763 175.9 261.446 175.9 268.42V298.512H201.084V268.291C201.213 261.317 195.53 255.763 188.556 255.763Z" fill="#7C7C7C"/>
<path d="M195.531 210.303H181.712V234.325H195.531V210.303Z" fill="#7C7C7C"/>
<path d="M262.946 240.266H249.127V264.287H262.946V240.266Z" fill="#F4F4F4"/>
<path d="M296.913 240.266H283.094V264.287H296.913V240.266Z" fill="#F4F4F4"/>
<path d="M330.879 240.266H317.06V264.287H330.879V240.266Z" fill="#F4F4F4"/>
<path d="M349.089 218.698C349.089 218.698 317.06 249.177 332.558 298.512H349.089H365.62C381.118 249.177 349.089 218.698 349.089 218.698Z" fill="#FDB933"/>
<path d="M342.373 226.963C333.979 239.103 321.839 264.287 332.558 298.512H343.923C334.366 276.04 333.849 249.823 342.373 226.963Z" fill="#E8CE23"/>
<path d="M388.35 290.375C388.35 280.172 380.085 271.907 369.882 271.907C359.679 271.907 351.414 280.172 351.414 290.375C351.414 293.346 352.059 296.058 353.351 298.512H386.542C387.704 296.058 388.35 293.346 388.35 290.375Z" fill="#FDB933"/>
<path d="M363.295 273.198C356.321 275.911 351.414 282.626 351.414 290.504C351.414 293.475 352.059 296.187 353.351 298.641H363.812C360.971 295.283 359.292 291.021 359.162 286.63C358.775 281.722 360.325 276.944 363.295 273.198Z" fill="#E8CE23"/>
</svg>
